<?xml version="1.0" encoding="UTF-8" standalone="no"?>
<!-- Created with Inkscape (http://www.inkscape.org/) -->

<svg
   width="210mm"
   height="297mm"
   viewBox="0 0 210 297"
   version="1.1"
   id="svg5"
   sodipodi:docname="logo.svg"
   inkscape:version="1.2.2 (b0a8486541, 2022-12-01)"
   xmlns:inkscape="http://www.inkscape.org/namespaces/inkscape"
   xmlns:sodipodi="http://sodipodi.sourceforge.net/DTD/sodipodi-0.dtd"
   xmlns="http://www.w3.org/2000/svg"
   xmlns:svg="http://www.w3.org/2000/svg">
  <sodipodi:namedview
     id="namedview7"
     pagecolor="#ffffff"
     bordercolor="#000000"
     borderopacity="0.25"
     inkscape:showpageshadow="2"
     inkscape:pageopacity="0.0"
     inkscape:pagecheckerboard="0"
     inkscape:deskcolor="#d1d1d1"
     inkscape:document-units="mm"
     showgrid="false"
     inkscape:zoom="0.74742565"
     inkscape:cx="371.27439"
     inkscape:cy="560.59088"
     inkscape:window-width="1848"
     inkscape:window-height="1011"
     inkscape:window-x="1992"
     inkscape:window-y="32"
     inkscape:window-maximized="1"
     inkscape:current-layer="layer1" />
  <defs
     id="defs2">
    <inkscape:path-effect
       effect="envelope"
       id="path-effect12076"
       is_visible="true"
       lpeversion="1"
       yy="true"
       xx="true"
       bendpath1="M -145.15369,133.06641 H -16.491771"
       bendpath2="m 8.4487366,151.69865 0.5445576,24.16473"
       bendpath3="M -145.15369,192.59784 H -16.491771"
       bendpath4="m -145.15369,133.06641 v 59.53143"
       bendpath2-nodetypes="cc" />
  </defs>
  <g
     inkscape:label="Layer 1"
     inkscape:groupmode="layer"
     id="layer1">
    <g
       id="g11537"
       transform="translate(19.35328,-4.9919711)"
       inkscape:export-filename="logo.png"
       inkscape:export-xdpi="45.591759"
       inkscape:export-ydpi="45.591759">
      <rect
         style="fill:#306998;fill-opacity:1;stroke-width:0.264583"
         id="rect111"
         width="48.99741"
         height="43.471554"
         x="66.356888"
         y="76.69043"
         ry="3.2008438" />
      <text
         xml:space="preserve"
         style="font-size:35.8304px;fill:#ffd43b;fill-opacity:1;stroke-width:0.373233"
         x="74.882133"
         y="107.11234"
         id="text7694"
         transform="matrix(0.9707158,0.01343465,-0.01266148,1.0299924,0,0)"><tspan
           sodipodi:role="line"
           id="tspan7692"
           style="font-style:normal;font-variant:normal;font-weight:normal;font-stretch:normal;font-size:35.8304px;font-family:'Open Sans';-inkscape-font-specification:'Open Sans';fill:#ffd43b;fill-opacity:1;stroke-width:0.373233"
           x="74.882133"
           y="107.11234">LL</tspan></text>
    </g>
    <g
       id="g12032"
       inkscape:path-effect="#path-effect12076"
       class="UnoptimicedTransforms"
       transform="matrix(1,0,0,0.68489323,77.326284,-18.196244)">
      <g
         aria-label="Östarrîchi"
         id="text11541"
         style="font-size:25.4px;font-family:'Open Sans';-inkscape-font-specification:'Open Sans';fill:#ffd43b;stroke-width:0.264583">
        <path
           d="m -103.23899,148.5341 c 0.25675,1.85913 0.10226,3.4241 -0.44568,4.74153 -0.53062,1.29914 -1.44318,2.29145 -2.70842,2.99275 -1.26474,0.70101 -2.88723,1.03798 -4.84428,1.00712 -2.01477,-0.0318 -3.71904,-0.42215 -5.10682,-1.1797 -1.37051,-0.75774 -2.41977,-1.81033 -3.15773,-3.16956 -0.739,-1.36112 -1.16802,-2.94979 -1.31426,-4.79524 -0.14491,-1.82865 0.03,-3.44367 0.5216,-4.8395 0.49133,-1.39492 1.31493,-2.50149 2.47236,-3.30406 1.17536,-0.80275 2.70521,-1.21308 4.61264,-1.2076 1.82489,0.005 3.41279,0.42749 4.80439,1.27673 1.38278,0.82745 2.53001,2.00212 3.41236,3.47942 0.89544,1.4577 1.49735,3.14078 1.75384,4.99811 z m -15.00588,-0.30394 c 0.19696,2.24389 0.829,3.98125 1.94574,5.25921 1.11488,1.26096 2.76817,1.90307 4.95891,1.94255 2.20228,0.0397 3.7747,-0.54222 4.66817,-1.75103 0.89465,-1.22826 1.218,-2.93211 0.92548,-5.1868 -0.29243,-2.25411 -1.07476,-4.11269 -2.24893,-5.46463 -1.18021,-1.37342 -2.80616,-2.0826 -4.88929,-2.10218 -2.08261,-0.0196 -3.53551,0.64906 -4.39537,1.96736 -0.84397,1.3007 -1.16174,3.09073 -0.96471,5.33552 z m 0.85575,-13.17836 c -0.0739,-0.48885 -0.0106,-0.84106 0.19055,-1.05339 0.19822,-0.23143 0.45439,-0.35067 0.77059,-0.35561 0.31623,-0.005 0.60895,0.1058 0.88003,0.33278 0.26752,0.20747 0.4435,0.56141 0.52405,1.05581 0.0774,0.47527 0.0174,0.834 -0.17998,1.07915 -0.20026,0.22626 -0.46202,0.33887 -0.78315,0.33964 -0.32114,7.7e-4 -0.61752,-0.11044 -0.88749,-0.33326 -0.27308,-0.24171 -0.44351,-0.59513 -0.5146,-1.06512 z m 4.71936,-0.0497 c -0.0871,-0.4998 -0.0428,-0.86118 0.13387,-1.07987 0.18984,-0.23865 0.44036,-0.36272 0.75386,-0.36988 0.31353,-0.007 0.60713,0.10458 0.88261,0.33558 0.27138,0.21101 0.45606,0.57265 0.54973,1.07809 0.09,0.48586 0.0402,0.85284 -0.14895,1.10442 -0.19253,0.23233 -0.44917,0.3489 -0.76757,0.35178 -0.31841,0.003 -0.61524,-0.10867 -0.88891,-0.3344 -0.26052,-0.24518 -0.43088,-0.60525 -0.51464,-1.08572 z"
           style="font-family:eufm10;-inkscape-font-specification:eufm10;fill:#ff0000"
           id="path12034"
           inkscape:original-d="m -106.67307,147.03641 q 0,2.8194 -0.9652,4.9276 -0.9398,2.0828 -2.794,3.2512 -1.8542,1.1684 -4.5974,1.1684 -2.8194,0 -4.699,-1.1684 -1.8542,-1.1684 -2.7686,-3.2766 -0.9144,-2.1082 -0.9144,-4.9276 0,-2.794 0.9144,-4.8768 0.9144,-2.0828 2.7686,-3.2512 1.8796,-1.1684 4.7244,-1.1684 2.7178,0 4.572,1.1684 1.8542,1.143 2.794,3.2512 0.9652,2.0828 0.9652,4.9022 z m -14.3256,0 q 0,3.429 1.4478,5.4102 1.4478,1.9558 4.5212,1.9558 3.0988,0 4.5212,-1.9558 1.4224,-1.9812 1.4224,-5.4102 0,-3.429 -1.4224,-5.3594 -1.4224,-1.9558 -4.4958,-1.9558 -3.0734,0 -4.5466,1.9558 -1.4478,1.9304 -1.4478,5.3594 z m 2.3876,-12.7254 q 0,-0.6604 0.3556,-0.9398 0.3556,-0.3048 0.8382,-0.3048 0.4826,0 0.8382,0.3048 0.3556,0.2794 0.3556,0.9398 0,0.635 -0.3556,0.9652 -0.3556,0.3048 -0.8382,0.3048 -0.4826,0 -0.8382,-0.3048 -0.3556,-0.3302 -0.3556,-0.9652 z m 4.7752,0 q 0,-0.6604 0.3302,-0.9398 0.3556,-0.3048 0.8382,-0.3048 0.4826,0 0.8382,0.3048 0.3556,0.2794 0.3556,0.9398 0,0.635 -0.3556,0.9652 -0.3556,0.3048 -0.8382,0.3048 -0.4826,0 -0.8382,-0.3048 -0.3302,-0.3302 -0.3302,-0.9652 z" />
        <path
           d="m -100.95389,156.95612 c -0.0103,-0.0118 -0.26132,-0.29894 -0.27165,-0.31077 0.14672,-0.15004 0.28937,-0.28886 0.42818,-0.41647 0.0567,-0.0557 0.36886,-0.36173 0.42556,-0.4174 0.24817,-0.22181 0.495207,-0.44407 0.741014,-0.6668 0.404146,-0.35491 0.982583,-0.52758 1.741735,-0.51678 0.680354,0.01 1.343239,0.19231 1.989036,0.54548 0.766745,0.43122 1.531945,0.85906 2.296559,1.28424 0.03775,0.0307 0.10043,0.0466 0.188067,0.0477 0.148701,0.002 0.252996,-0.16269 0.308598,-0.49515 0.06438,-0.3325 0.09228,-0.70476 0.08222,-1.11798 -0.0013,-0.41207 -0.01468,-0.7113 -0.03563,-0.88791 -0.110978,-0.9353 -0.294995,-1.50903 -0.528946,-1.7012 -0.438992,-0.3606 -0.766865,-0.54381 -0.983629,-0.54717 -0.398739,-0.006 -0.742704,0.0676 -1.033849,0.22091 -0.845391,0.44039 -1.697337,0.87771 -2.555307,1.31244 -0.321102,-0.30834 -0.725461,-0.81003 -1.218295,-1.51258 -0.02787,-0.22561 -0.05651,-0.452 -0.08591,-0.67922 -0.049,-0.37869 -0.100108,-0.75965 -0.153333,-1.14307 -0.113378,-0.81673 -0.194661,-1.4095 -0.240343,-1.82247 1.212188,-0.84193 2.402361,-1.70072 3.567687,-2.58023 0.09414,0.0598 0.433854,0.25407 1.009044,0.57441 0.584094,0.31301 0.998323,0.57581 1.241874,0.78943 0.172925,0.15373 0.442971,0.23284 0.81048,0.23803 0.256206,0.004 0.513954,-0.0807 0.770744,-0.25394 0.263112,-0.18112 0.583373,-0.45223 0.952696,-0.81367 -0.0013,-0.003 0.220204,0.52935 0.218888,0.52619 -0.674179,0.6681 -1.360969,1.32502 -2.059194,1.97229 -0.69542,-0.0598 -1.373794,-0.17267 -2.034106,-0.33892 -0.661467,-0.17443 -1.439069,-0.42934 -2.32956,-0.76552 -0.103531,0.19804 -0.154738,0.43337 -0.15412,0.70515 -6.85e-4,0.26365 0.02947,0.59194 0.08883,0.98357 0.0643,0.42417 0.197192,0.91915 0.396559,1.48229 0.207715,0.56249 0.464104,0.84321 0.7761,0.848 0.216349,0.003 0.365682,-0.0102 0.447892,-0.0407 1.028734,-0.43617 2.050398,-0.87567 3.06511,-1.31916 0.401981,0.14349 0.947184,0.46209 1.636988,0.95176 0.151756,0.64794 0.270496,1.28746 0.355806,1.9199 0.161092,1.19424 0.135078,2.23438 -0.06529,3.13841 -1.699445,0.61954 -3.08442,1.21593 -4.149778,1.78819 -1.584543,-1.19494 -2.78701,-1.81002 -3.591738,-1.82057 -0.648447,-0.008 -1.326147,0.27201 -2.048987,0.83928 z"
           style="font-family:eufm10;-inkscape-font-specification:eufm10;fill:#ff0000"
           id="path12036"
           inkscape:original-d="m -105.34691,155.88156 -0.23564,-0.33486 q 0.22324,-0.24805 0.43408,-0.45889 0.19844,-0.21084 0.43408,-0.45889 l 0.75655,-0.73173 q 0.62011,-0.58291 1.69912,-0.58291 0.96738,0 1.83554,0.5581 l 2.058792,1.36426 q 0.04961,0.0496 0.173633,0.0496 0.21084,0 0.334863,-0.5457 0.136426,-0.54571 0.186036,-1.21543 0.06201,-0.66973 0.06201,-0.95498 0,-1.50069 -0.297656,-1.79834 -0.558105,-0.55811 -0.868164,-0.55811 -0.570508,0 -1.016992,0.24805 l -2.592092,1.42627 q -0.40927,-0.48369 -0.99218,-1.5751 v -0.70693 -1.17823 q 0,-1.24023 0.0248,-1.84795 l 3.894335,-2.59209 q 0.124024,0.0868 0.880567,0.54571 0.768945,0.44648 1.066601,0.75654 0.21084,0.22324 0.744141,0.22324 0.37207,0 0.79375,-0.26045 0.434082,-0.27285 1.079004,-0.80615 l 0.111621,0.5085 -2.344043,1.98437 q -0.992188,-0.0744 -1.909961,-0.31006 -0.917774,-0.24804 -2.133205,-0.73174 -0.19843,0.29766 -0.26045,0.70694 -0.062,0.39687 -0.062,0.99219 0,0.64492 0.17363,1.51308 0.18604,0.86817 0.63252,0.86817 0.31006,0 0.43409,-0.0496 l 3.125386,-1.41387 q 0.545703,0.21084 1.426269,0.95498 0.07441,1.00459 0.07441,2.00918 0,1.89756 -0.409277,3.38584 -2.492871,1.0542 -4.055568,2.02158 -2.1208,-1.94717 -3.26182,-1.94717 -0.91777,0 -1.99678,0.94258 z" />
        <path
           d="m -85.93138,155.93895 c -0.225961,-2.2473 -0.560533,-4.57059 -1.003301,-7.02752 -0.04269,-7.6e-4 -2.290155,-0.0397 -2.332845,-0.0404 0.272017,-0.29932 0.541649,-0.60069 0.808791,-0.90426 -0.01594,-2.7e-4 1.425131,0.0245 1.409195,0.0242 -0.07288,-0.36611 -0.163373,-0.85681 -0.29779,-1.57347 -0.130672,-0.69666 -0.243788,-1.24558 -0.323059,-1.60005 -0.125417,-0.56082 -0.234695,-0.99744 -0.319843,-1.29201 0.78568,-0.75017 1.555876,-1.5173 2.30933,-2.3038 0.146383,0.12791 0.292759,0.25552 0.439131,0.38284 -0.173683,0.2442 -0.34886,0.48659 -0.525498,0.72722 -0.235005,0.37152 0.141199,2.35444 0.830692,5.69808 0.939372,0.018 1.880805,0.037 2.825234,0.0572 -0.198552,0.30439 -0.399554,0.60645 -0.602927,0.90634 -0.02298,-4.8e-4 -2.03895,-0.0411 -2.061925,-0.0416 0.612138,3.09451 0.861552,4.86674 0.996621,5.60098 0.225742,0.17155 0.484825,0.36227 0.776799,0.57154 0.291991,0.20928 0.570875,0.38728 0.836987,0.53453 0.273976,0.13984 0.50871,0.21112 0.704051,0.21434 0.07105,0.001 0.127862,-0.005 0.170411,-0.0197 0.543104,-0.23088 1.085039,-0.46196 1.625702,-0.69328 0.05912,0.17073 0.117597,0.34091 0.175428,0.51056 -1.151515,0.73987 -2.319654,1.47598 -3.499263,2.20874 -0.977159,-0.63983 -1.956579,-1.28554 -2.941921,-1.94055 z"
           style="font-family:eufm10;-inkscape-font-specification:eufm10;fill:#ff0000"
           id="path12038"
           inkscape:original-d="m -91.084212,154.55451 0.07441,-7.3918 h -2.232422 l 0.942579,-0.91777 h 1.351855 q 0,-0.5209 0.02481,-1.53789 0.0248,-1.01699 0.0248,-1.52549 0,-0.79375 -0.0248,-1.20303 l 2.815332,-2.10839 0.334863,0.33486 -0.694531,0.65732 q -0.458887,0.48369 -0.458887,5.38262 h 2.691309 l -0.756543,0.91777 h -1.959571 q 0,4.65088 0.04961,5.84151 0.285254,0.27285 0.657324,0.60771 0.37207,0.33487 0.719336,0.57051 0.359668,0.22324 0.632519,0.22324 0.09922,0 0.161231,-0.0248 l 1.599902,-0.79375 0.09922,0.5581 -3.485059,2.51768 z" />
        <path
           d="m -75.369904,158.32541 c -0.898299,-0.70912 -1.784485,-1.48325 -2.660988,-2.32585 -0.146814,-0.71828 -0.278739,-1.44104 -0.395858,-2.17073 -0.283742,-1.76781 -0.425817,-3.45316 -0.403417,-5.05637 1.311726,-0.86346 2.602587,-1.74445 3.86936,-2.64665 0.945812,0.5817 1.884177,0.95951 2.81424,1.14296 0.524045,-0.27538 1.046113,-0.55243 1.566139,-0.83125 -1.8e-5,-1e-5 0.257477,0.16426 0.257459,0.16425 0.273776,2.19546 0.496075,3.83674 0.779635,5.13678 0.05413,0.24818 0.123381,0.55012 0.209952,0.92655 0.06256,0.24608 0.237662,0.93054 0.300225,1.17662 0.103465,0.40364 0.193106,0.77697 0.270327,1.12105 0.384032,0.35234 0.765709,0.70126 1.145438,1.04739 -0.08164,0.0315 1.390164,-0.5364 1.308528,-0.50491 0.06556,0.11566 0.130773,0.23099 0.195637,0.346 -1.029232,0.79465 -2.079847,1.58416 -3.146475,2.36999 -0.463108,-0.5415 -0.934601,-1.09068 -1.411301,-1.64511 -0.01619,-0.11698 -0.04964,-0.2905 -0.101477,-0.5194 -0.05208,-0.22999 -0.08674,-0.396 -0.103021,-0.50073 -1.47368,0.92748 -2.975764,1.85055 -4.494403,2.76941 z m -0.641701,-3.57942 c 0.219459,0.20799 0.58462,0.51731 1.091213,0.92209 0.515319,0.40475 0.804111,0.60571 0.86709,0.60696 0.135528,0.003 0.254631,-0.0171 0.35706,-0.0593 0.480234,-0.24891 0.900033,-0.46195 1.262017,-0.63967 0.359712,-0.17659 0.845581,-0.42412 1.443078,-0.73734 -0.321267,-1.87025 -0.737373,-3.8168 -1.247561,-5.88136 -0.563291,-0.0179 -1.110708,-0.0841 -1.641469,-0.1991 -0.520878,-0.1145 -1.325273,-0.31646 -2.400544,-0.60448 -0.571103,0.72488 -0.552537,2.33823 -0.126919,4.70401 0.113304,0.6298 0.245399,1.25884 0.396028,1.88822 0,0 7e-6,-2e-5 7e-6,-2e-5 z"
           style="font-family:eufm10;-inkscape-font-specification:eufm10;fill:#ff0000"
           id="path12040"
           inkscape:original-d="m -81.509604,157.04738 q -1.141016,-1.19062 -2.207617,-2.56728 -0.07441,-1.19063 -0.07441,-2.36885 0,-2.85254 0.533301,-5.25859 l 4.266406,-2.69131 q 1.128613,0.79375 2.368847,1.01699 l 1.674317,-0.85576 0.198437,0.14883 q -0.458886,3.13779 -0.458886,5.15937 0,0.38447 0.0124,0.97979 0.02481,0.59531 0.06201,1.26503 0.03721,0.65733 0.06201,1.22784 l 0.880567,1.14101 1.252636,-0.60771 0.124024,0.38447 -3.125391,2.79053 -1.091406,-1.84795 q 0,-0.19844 -0.02481,-0.58291 -0.0248,-0.38447 -0.0248,-0.55811 z m -0.173633,-3.99355 q 0.260449,0.33486 0.880567,0.99218 0.632519,0.65733 0.719336,0.65733 0.186035,0 0.334863,-0.0744 0.706933,-0.43408 1.240234,-0.74414 0.533301,-0.31005 1.42627,-0.85576 l -0.02481,-6.17636 q -0.781348,0 -1.488281,-0.14883 -0.694531,-0.14883 -2.120801,-0.5333 -1.041797,1.0914 -1.041797,4.84931 0,1.00459 0.07441,2.03399 z" />
        <path
           d="m -63.226483,156.10458 c -0.01566,-1.09022 -0.123971,-2.03571 -0.289725,-2.80228 -0.119597,-0.5531 -0.306031,-1.29815 -0.576185,-2.24166 -0.271181,-0.94708 -0.483269,-1.49207 -0.601261,-1.59434 -0.02054,-0.009 -0.0487,-0.0466 -0.08463,-0.11318 -0.03593,-0.0665 -0.06992,-0.10874 -0.101846,-0.12638 -0.143562,-0.0957 -0.263133,-0.17016 -0.358933,-0.2233 -0.08519,-0.0519 -0.279416,-0.1762 -0.574212,-0.36903 -0.0012,4.5e-4 -0.955099,0.3684 -0.956253,0.36885 -3e-6,-1e-5 -0.38657,-0.23702 -0.386573,-0.23702 0.461175,-0.53403 0.830105,-0.96761 1.115168,-1.29343 0.282672,-0.33438 0.620694,-0.68629 1.013225,-1.05684 0.888118,0.69457 1.666375,1.25822 2.328718,1.69617 0.07832,0.27003 0.154888,0.53772 0.22969,0.80316 0.821291,-0.6951 1.627816,-1.40271 2.417886,-2.12503 1.10533,1.31714 1.924996,1.95907 2.479254,1.98909 0.112966,0.006 0.254777,-0.0311 0.424681,-0.11174 0.179437,-0.0802 0.291226,-0.12316 0.335928,-0.12887 0.04706,0.12164 0.09375,0.24277 0.140071,0.3634 -0.124012,0.13911 -0.324306,0.34034 -0.600241,0.59871 -0.272713,0.25424 -0.460326,0.42948 -0.579659,0.54609 -0.139861,0.15994 -0.437361,0.22817 -0.888655,0.20613 -0.244418,-0.0119 -0.513913,-0.0805 -0.80784,-0.20625 -0.296318,-0.13392 -0.555991,-0.27056 -0.779483,-0.41006 -0.221614,-0.13834 -0.533843,-0.33714 -0.925498,-0.59117 -0.302672,0.32007 -0.608681,0.63739 -0.917883,0.95218 0.418645,1.5527 0.774138,3.02995 1.066148,4.45331 0.109533,0.5339 0.933444,1.2519 2.471969,2.12186 0.812347,-0.28045 1.624182,-0.55958 2.43559,-0.83748 0.06125,0.14137 0.121841,0.28218 0.181772,0.42244 -1.289853,0.70949 -2.59904,1.42055 -3.917048,2.13123 -0.883885,-0.49364 -1.982234,-1.21668 -3.294177,-2.18456 z"
           style="font-family:eufm10;-inkscape-font-specification:eufm10;fill:#ff0000"
           id="path12042"
           inkscape:original-d="m -70.27308,154.21965 q 0.223242,-1.87276 0.223242,-3.12539 0,-0.90537 -0.04961,-2.38125 -0.04961,-1.47588 -0.173633,-1.62471 -0.0248,-0.0124 -0.04961,-0.11162 -0.02481,-0.0992 -0.06201,-0.12402 -0.16123,-0.13643 -0.272851,-0.21084 -0.09922,-0.0744 -0.434082,-0.34727 l -0.967383,0.40928 -0.297656,-0.22325 q 0.830957,-0.83095 1.351855,-1.32705 0.520898,-0.50849 1.21543,-1.0666 0.942578,0.94258 1.674316,1.5503 v 0.79375 l 2.765723,-2.22002 q 0.942578,1.83554 1.674316,1.83554 0.148828,0 0.409277,-0.13642 0.272852,-0.13643 0.334864,-0.14883 l 0.0248,0.35967 q -0.223242,0.22324 -0.694531,0.64492 -0.458887,0.40928 -0.657324,0.59531 -0.248047,0.26045 -0.843359,0.26045 -0.322461,0 -0.669727,-0.17363 -0.347266,-0.18604 -0.595312,-0.38447 -0.248047,-0.19844 -0.682129,-0.55811 l -1.066602,1.01699 v 4.7501 q 0,0.89297 1.823145,2.33164 l 2.257226,-1.0666 0.08682,0.48369 -3.7083,2.6417 q -1.079004,-0.84336 -2.616895,-2.44326 z" />
        <path
           d="m -51.81357,156.47703 c -0.03236,-1.04831 -0.162307,-1.96242 -0.349964,-2.70614 -0.135494,-0.537 -0.344878,-1.26095 -0.647669,-2.18336 -0.303892,-0.92577 -0.538538,-1.46261 -0.664282,-1.56483 -0.02169,-0.009 -0.05201,-0.0465 -0.09111,-0.11222 -0.0391,-0.0657 -0.07564,-0.10763 -0.109433,-0.12551 -0.152356,-0.0964 -0.279082,-0.17166 -0.380494,-0.22559 -0.08988,-0.0522 -0.296628,-0.17825 -0.608921,-0.37294 0.0037,-0.001 -0.993401,0.34323 -0.989735,0.34196 -0.13642,-0.0798 -0.272825,-0.15979 -0.409216,-0.23998 0.468152,-0.51458 0.842713,-0.93228 1.132445,-1.24592 0.286995,-0.32208 0.631577,-0.66014 1.032918,-1.01486 0.946657,0.70356 1.775982,1.27343 2.480087,1.71601 0.08842,0.26543 0.174846,0.52823 0.259289,0.78852 0.844797,-0.65924 1.674852,-1.32966 2.48838,-2.01346 1.191206,1.31246 2.068282,1.95285 2.651457,1.9955 0.119008,0.009 0.267465,-0.0238 0.444624,-0.0976 0.187185,-0.0731 0.304044,-0.11181 0.350975,-0.1162 0.05213,0.11884 0.103849,0.23711 0.155143,0.35481 -0.127743,0.13137 -0.334344,0.32072 -0.619438,0.56377 -0.281406,0.23882 -0.475776,0.40433 -0.59857,0.51394 -0.14378,0.15123 -0.455311,0.21054 -0.929984,0.17936 -0.257076,-0.0169 -0.541651,-0.089 -0.852959,-0.21715 -0.31401,-0.1361 -0.589538,-0.2742 -0.827137,-0.41445 -0.235228,-0.13884 -0.567982,-0.33913 -0.984126,-0.59472 -0.310366,0.30448 -0.624183,0.60637 -0.941303,0.90589 0.472629,1.51756 0.874026,2.95065 1.203816,4.32358 0.123603,0.51456 0.998193,1.21719 2.624183,2.06613 0.848879,-0.25746 1.698032,-0.51257 2.547492,-0.7653 0.06642,0.13542 0.132105,0.2702 0.197046,0.40436 -1.343827,0.65503 -2.716415,1.31998 -4.08716,1.98355 -0.93101,-0.47866 -2.091303,-1.18142 -3.476341,-2.12717 0,0 -1.1e-5,0 -1.1e-5,0 z"
           style="font-family:eufm10;-inkscape-font-specification:eufm10;fill:#ff0000"
           id="path12044"
           inkscape:original-d="m -60.388413,154.21965 q 0.223242,-1.87276 0.223242,-3.12539 0,-0.90537 -0.04961,-2.38125 -0.04961,-1.47588 -0.173633,-1.62471 -0.02481,-0.0124 -0.04961,-0.11162 -0.0248,-0.0992 -0.06201,-0.12402 -0.161231,-0.13643 -0.272852,-0.21084 -0.09922,-0.0744 -0.434082,-0.34727 l -0.967383,0.40928 -0.297656,-0.22325 q 0.830957,-0.83095 1.351855,-1.32705 0.520899,-0.50849 1.21543,-1.0666 0.942578,0.94258 1.674317,1.5503 v 0.79375 l 2.765722,-2.22002 q 0.942578,1.83554 1.674317,1.83554 0.148828,0 0.409277,-0.13642 0.272851,-0.13643 0.334863,-0.14883 l 0.02481,0.35967 q -0.223242,0.22324 -0.694531,0.64492 -0.458887,0.40928 -0.657325,0.59531 -0.248047,0.26045 -0.843359,0.26045 -0.322461,0 -0.669727,-0.17363 -0.347265,-0.18604 -0.595312,-0.38447 -0.248047,-0.19844 -0.682129,-0.55811 l -1.066601,1.01699 v 4.7501 q 0,0.89297 1.823144,2.33164 l 2.257227,-1.0666 0.08682,0.48369 -3.708301,2.6417 q -1.079004,-0.84336 -2.616894,-2.44326 z" />
        <path
           d="m -37.077543,158.58244 c -0.0037,-1.5e-4 -2.805681,-0.1091 -2.809428,-0.10925 -0.664677,-3.53148 -1.970356,-7.41892 -3.907469,-12.28361 0.899038,0.0807 1.804086,0.16445 2.7155,0.25136 1.98342,4.83422 3.320484,8.66939 4.001397,12.1415 z m -6.850343,-18.96018 c 0.450392,0.50274 1.028842,1.07434 1.732973,1.7051 0.715866,0.61256 1.440158,1.21401 2.172945,1.80436 0.742462,0.57099 1.39816,1.06002 1.953965,1.4644 0.04622,0.10485 0.09215,0.20923 0.137806,0.31313 -0.650909,-0.0711 -1.298481,-0.14044 -1.942837,-0.20802 -0.670561,-0.35997 -1.390435,-0.79307 -2.157743,-1.30392 -0.776112,-0.53076 -1.554785,-1.09926 -2.336543,-1.70851 -0.310119,0.49768 -0.645775,0.94576 -1.002244,1.34784 -0.356367,0.40197 -0.733156,0.74094 -1.124224,1.02019 -0.602863,-0.0541 -1.202985,-0.10669 -1.800477,-0.15783 -0.0417,-0.10585 -0.08365,-0.21214 -0.125863,-0.31886 0.22393,-0.3547 0.462324,-0.77133 0.707762,-1.25032 0.26583,-0.47812 0.500805,-0.97675 0.703792,-1.49814 0.194225,-0.54216 0.31685,-1.0421 0.372418,-1.4934 0.896354,0.0905 1.798993,0.1851 2.70827,0.28398 z"
           style="font-family:eufm10;-inkscape-font-specification:eufm10;fill:#ff0000"
           id="path12046"
           inkscape:original-d="m -48.577609,156.12961 h -2.2352 v -13.6144 h 2.2352 z m 0.0508,-19.4564 q 0.3048,0.5588 0.8636,1.27 0.5842,0.6858 1.1938,1.3716 0.635,0.6604 1.117599,1.143 v 0.2794 h -1.574799 q -0.6604,-0.4064 -1.3716,-0.9906 -0.7112,-0.6096 -1.397,-1.2954 -0.6858,0.6858 -1.3716,1.27 -0.6858,0.5842 -1.3462,1.016 h -1.524 v -0.2794 q 0.4826,-0.508 1.0668,-1.1684 0.6096,-0.6604 1.1684,-1.3462 0.5588,-0.7112 0.889,-1.27 z" />
        <path
           d="m -32.179494,157.21363 c -0.396549,-1.05011 -0.71774,-1.89154 -0.959317,-2.61834 -0.441134,-1.32718 -0.73802,-2.44166 -0.820605,-3.30364 1.466554,-0.64164 2.921717,-1.28656 4.358307,-1.93544 1.011409,0.16393 2.355371,0.65735 4.082363,1.4489 -0.300922,0.55221 -0.618505,1.09037 -0.952163,1.61685 -1.78e-4,10e-6 -0.317378,0.0316 -0.317556,0.0316 -1.577637,-0.86474 -3.043522,-1.3908 -4.404622,-1.52166 -0.165043,0.41637 -0.17493,0.91074 -0.0383,1.47095 0.13714,0.56233 0.345559,1.21958 0.609768,1.96603 0.170664,0.48216 0.422749,1.08113 0.742493,1.80143 0.546198,0.32589 1.109814,0.64057 1.691504,0.94435 0.579964,0.2976 1.158285,0.5895 1.735027,0.87589 0.348532,-0.0344 0.677398,-0.0842 0.985371,-0.14943 0.31906,-0.0646 0.641495,-0.13739 0.966678,-0.21823 0.31605,-0.0849 0.780613,-0.20893 1.349086,-0.35853 0.13443,0.11188 0.268262,0.22296 0.401502,0.33327 -1.746962,0.61236 -3.504762,1.23808 -5.283843,1.88559 -0.704761,-0.31973 -1.351097,-0.64124 -1.939523,-0.96303 -0.586026,-0.32574 -1.326816,-0.7609 -2.206173,-1.30656 0,0 7e-6,1e-5 7e-6,1e-5 z"
           style="font-family:eufm10;-inkscape-font-specification:eufm10;fill:#ff0000"
           id="path12048"
           inkscape:original-d="m -44.459055,154.02121 q -0.136425,-1.99678 -0.136425,-3.27422 0,-2.39365 0.310058,-3.83232 l 4.191992,-2.6169 q 1.128614,0.0868 2.740918,1.11621 l -1.314648,2.00918 -0.260449,0.0744 q -1.42627,-1.27744 -3.001368,-1.27744 -0.409277,0.73173 -0.508496,1.69912 -0.09922,0.96738 -0.09922,2.31923 0,0.86817 0.111621,2.23243 0.520898,0.5705 1.091406,1.11621 0.570508,0.5333 1.141016,1.0666 0.409277,-0.11162 0.781347,-0.28525 0.384473,-0.17364 0.781348,-0.38448 0.396875,-0.22324 1.103808,-0.62011 l 0.223243,0.43408 -4.365625,3.06338 q -0.731739,-0.62012 -1.327051,-1.22784 -0.595313,-0.62011 -1.463477,-1.6123 z" />
        <path
           d="m -12.672209,162.49198 c 0.768869,-0.25654 1.533402,-0.50661 2.293984,-0.75085 0.9444589,-0.29178 1.4803346,-0.86354 1.4669182,-1.75443 -0.0015,-0.89755 -0.2581209,-1.91823 -0.8209873,-3.15247 -0.1421718,-0.31175 -0.6745099,-1.2305 -1.8322649,-3.02415 -1.451111,-0.63967 -2.633514,-1.03293 -3.579778,-1.14573 -0.429537,-0.0512 -1.342494,0.17765 -2.763,0.68974 0.721318,1.52175 1.31626,2.89635 1.784049,4.17425 0.188246,0.14618 0.530682,0.3707 1.017941,0.66183 0.504381,0.29681 0.851605,0.49968 1.15457,0.67978 -0.853795,0.35026 -1.71272,0.70291 -2.586459,1.06357 -0.325695,-0.24638 -0.749174,-0.54485 -1.285018,-0.91031 -0.526184,-0.37054 -0.885655,-0.61303 -1.076905,-0.7197 -0.38026,-2.09118 -1.242736,-4.39223 -2.573114,-7.14898 -0.968313,-2.0065 -2.156246,-4.18255 -3.438853,-6.40311 -2.35e-4,1e-5 0.35184,-0.0264 0.351605,-0.0264 0.65704,0.78115 1.301592,1.53323 1.933663,2.25822 0.963266,-0.60103 1.910253,-1.21484 2.838995,-1.84407 0.261057,0.14897 0.522278,0.29713 0.783666,0.44449 -0.570044,0.50693 -0.927096,1.13118 -1.088767,1.84694 -0.161579,0.71538 -0.04074,1.47211 0.360918,2.25361 0.548029,1.06628 1.050367,2.06545 1.506842,3.00854 0.613621,-0.29387 1.886327,-0.82411 4.023104,-1.72291 1.311713,0.72529 2.949764,1.35015 4.9570906,1.90519 1.0446742,1.6191 1.6432825,2.629 1.9878841,3.30904 0.3630508,0.71645 0.6112101,1.28169 0.7761122,1.72931 0.1648294,0.44743 0.2667641,0.90146 0.2980049,1.36274 0.031223,0.46108 -0.046146,0.86203 -0.2189454,1.21382 -0.4961289,0.27116 -1.0253785,0.53014 -1.5812882,0.77738 -0.5445727,0.24804 -1.1420101,0.50422 -1.794026,0.77177 -0.6503412,0.26686 -1.3070452,0.53146 -1.9598262,0.79056 -0.311472,-0.11114 -0.623507,-0.22369 -0.936115,-0.33768 z"
           style="font-family:eufm10;-inkscape-font-specification:eufm10;fill:#ff0000"
           id="path12050"
           inkscape:original-d="m -30.791673,160.80529 1.674316,-1.40146 q 1.041797,-0.84336 1.314648,-3.1502 0.285254,-2.30683 0.285254,-5.02295 0,-0.68213 -0.248047,-4.06797 -1.240234,-0.94257 -2.244824,-0.94257 -0.458886,0 -2.356445,1.27744 v 5.55625 q 0.148828,0.29765 0.570508,0.89297 0.421679,0.58291 0.669726,0.94257 l -2.083593,1.89756 q -0.285254,-0.5457 -0.756543,-1.31465 -0.458887,-0.78134 -0.63252,-0.99218 0.297656,-4.61368 0.297656,-9.19014 0,-3.36104 -0.173632,-6.27559 l 0.297656,-0.0744 0.620117,1.94717 3.063379,-2.25723 0.434082,0.31006 q -1.016992,0.88057 -1.661914,2.03398 -0.644922,1.15342 -0.644922,2.38125 v 3.34864 q 0.806152,-0.63252 3.75791,-2.71612 1.054199,0.97979 2.951758,1.5503 0.148828,2.90215 0.148828,4.34082 0,1.55029 -0.03721,2.61689 -0.03721,1.0666 -0.186035,2.25723 -0.148828,1.19062 -0.434082,2.15801 -0.595313,0.79375 -1.227832,1.51308 -0.620117,0.71934 -1.339453,1.47588 -0.719336,0.75654 -1.42627,1.46348 z" />
        <path
           d="m 0.91946846,159.73916 c -0.0173035,-0.5208 -0.22077289,-1.15426 -0.65527365,-1.95748 -0.45596596,-0.8429 -1.14959902,-1.81735 -2.12476751,-3.02313 -0.3127399,-0.17541 -0.6557,-0.35467 -1.0279819,-0.53763 -0.1819841,-0.001 -0.6322651,0.0624 -1.3480882,0.19499 -0.2073893,-0.10167 -0.4149143,-0.2042 -0.6225752,-0.30757 0.9367694,-0.38061 1.891829,-0.81364 2.8320074,-1.30177 1.09955877,0.58505 2.10546936,1.0575 3.00998447,1.43171 0.48363493,1.21268 0.97887843,2.25513 1.52023313,3.17233 0.2366018,0.40086 0.4377453,0.71423 0.6206713,0.95657 0.1825366,0.24182 0.4565228,0.49111 0.8219519,0.7446 0.3655449,0.25358 0.844619,0.48323 1.4448149,0.69075 0.051604,0.004 0.09908,-6.9e-4 0.1422767,-0.0137 0.054017,-0.0162 0.1121777,-0.024 0.1746871,-0.0232 0.5400943,-0.0501 1.0808234,-0.098 1.622189,-0.14362 0.1356839,0.089 0.2703913,0.17685 0.4041242,0.2636 -1.391577,0.35077 -2.8641217,0.67976 -4.3337032,0.97742 -0.8148695,-0.35492 -1.6416716,-0.7289 -2.48055044,-1.12386 z m -3.67752506,-8.64433 c -0.9526823,-0.50578 -1.999076,-1.12184 -3.1331969,-1.86385 0.1415113,-0.12079 0.3606164,-0.27822 0.6572282,-0.47608 0.3084226,-0.19538 0.5321265,-0.38537 0.6722741,-0.57058 1.4595318,0.96986 2.5033276,1.58289 3.0396835,1.8495 -0.4014275,0.36216 -0.8135644,0.71543 -1.2359889,1.06101 z"
           style="font-family:eufm10;-inkscape-font-specification:eufm10;fill:#ff0000"
           id="path12052"
           inkscape:original-d="m -20.993823,154.72814 q 0.21084,-1.48828 0.21084,-3.47265 0,-2.07119 -0.26045,-4.45244 -0.223242,-0.29766 -0.508496,-0.58291 -0.198437,0.0496 -1.066601,0.5333 l -0.322461,-0.32246 q 1.277441,-1.06661 2.666504,-2.34405 0.806152,0.84336 1.525488,1.37666 -0.334863,2.50528 -0.334863,4.7501 0,0.97979 0.04961,1.5999 0.04961,0.62012 0.285254,1.26504 0.235644,0.64492 0.731738,1.14102 0.04961,0 0.09922,-0.0496 0.06201,-0.062 0.124023,-0.0744 l 1.128614,-0.5581 0.173632,0.48369 q -1.575097,1.46348 -3.150195,2.6417 z m 0.992187,-12.7 q -0.706933,-0.64492 -1.475879,-1.57509 0.248047,-0.24805 0.731739,-0.66973 0.496093,-0.42168 0.79375,-0.76895 0.979785,1.15342 1.401464,1.46348 z" />
      </g>
      <g
         aria-label="Αὐτοκράτωρ"
         id="text11647"
         style="font-size:25.4px;font-family:eufm10;-inkscape-font-specification:eufm10;fill:#ff0000;stroke-width:0.264583">
        <path
           d="m -139.56564,180.54957 c -0.54728,1.38347 -1.09003,2.76985 -1.62945,4.16689 -0.088,0.25861 0.0345,0.43866 0.36513,0.54043 0.34013,0.10147 0.88671,0.17383 1.63673,0.21893 -0.005,0.17691 -0.01,0.35391 -0.0145,0.53099 -1.90229,0.0739 -3.82762,0.15658 -5.78105,0.24897 1.4e-4,-0.17773 2.7e-4,-0.35547 4e-4,-0.5332 0.64013,-0.12905 1.14188,-0.25471 1.50768,-0.37811 0.37509,-0.13201 0.61505,-0.31962 0.72034,-0.56303 1.82081,-4.80473 3.60826,-9.28091 5.46742,-13.90961 0.22143,-0.20276 0.49476,-0.38521 0.81977,-0.54742 0.32499,-0.17017 0.61142,-0.31166 0.85912,-0.42464 1.91642,4.79033 3.73759,9.59518 5.26526,14.45142 0.0648,0.22736 0.2211,0.40347 0.46833,0.52819 0.24729,0.12475 0.65053,0.21272 1.20815,0.26466 -0.0135,0.17704 -0.0272,0.35432 -0.0411,0.53183 -1.85031,0.0453 -3.71782,0.0976 -5.60809,0.15802 0.009,-0.17703 0.0179,-0.35391 0.0267,-0.53063 1.34741,-0.11673 1.93156,-0.41186 1.75245,-0.88985 -0.43372,-1.3531 -0.88638,-2.69727 -1.35421,-4.03527 -1.86903,0.0522 -3.75671,0.10915 -5.66912,0.17143 z m 5.28354,-1.25242 c -0.7344,-2.05315 -1.50787,-4.10861 -2.30348,-6.16293 -0.84843,2.09072 -1.68775,4.16824 -2.53637,6.29994 1.62964,-0.0489 3.24158,-0.0945 4.83985,-0.13701 z"
           style="font-family:'Gentium Plus';-inkscape-font-specification:'Gentium Plus';fill:#ff00ff"
           id="path12055"
           inkscape:original-d="m -140.42839,180.87762 -1.37666,4.14239 q -0.11162,0.38447 0.33486,0.5581 0.45889,0.17364 1.47588,0.28526 v 0.5333 h -5.15938 v -0.5333 q 0.84336,-0.14883 1.32705,-0.31006 0.4961,-0.17363 0.63252,-0.5333 l 4.61368,-13.96504 q 0.28525,-0.31006 0.70693,-0.55811 0.42168,-0.26045 0.74414,-0.43408 l 5.20898,14.95723 q 0.11163,0.34726 0.47129,0.5457 0.35967,0.19844 1.15342,0.29766 v 0.5333 h -5.23379 v -0.5333 q 1.86035,-0.11162 1.5751,-0.84336 l -1.41387,-4.14239 z m 4.67568,-1.11621 -2.18281,-6.3748 -2.1208,6.3748 z" />
        <path
           d="m -122.80484,185.93849 c -0.54951,0.009 -1.09143,-0.13493 -1.63202,-0.43054 -0.53963,-0.30381 -0.97329,-0.81032 -1.30566,-1.51514 -0.32287,-0.71311 -0.43912,-1.67987 -0.35063,-2.8917 0.0626,-0.85677 0.14044,-1.61451 0.23714,-2.27983 0.10602,-0.67247 0.1853,-1.4466 0.23393,-2.31763 0.0234,-0.41983 -0.0645,-0.71833 -0.26329,-0.8966 -0.1896,-0.17833 -0.71436,-0.27258 -1.57752,-0.28195 0.007,-0.15832 0.0143,-0.31652 0.0212,-0.47462 1.18837,-0.10561 2.38319,-0.384 3.58781,-0.83096 0.12333,0.15106 0.24629,0.30215 0.36884,0.45325 0.0579,0.26553 0.0527,0.6932 -0.018,1.28447 -0.0707,0.59101 -0.16317,1.28427 -0.27942,2.07966 -0.1069,0.7882 -0.19373,1.62272 -0.26285,2.50781 -0.11185,1.43222 0.0588,2.47855 0.51984,3.123 0.47072,0.63642 1.03212,0.95148 1.69678,0.9397 0.58663,-0.0104 1.12787,-0.21322 1.62762,-0.60784 0.49931,-0.39427 0.94216,-0.88924 1.32619,-1.48133 0.39356,-0.60037 0.70702,-1.22044 0.93786,-1.8589 0.24041,-0.64681 0.38468,-1.22339 0.43307,-1.73278 0.1097,-0.97099 -5.7e-4,-1.77537 -0.32844,-2.42136 -0.31816,-0.65342 -0.87133,-1.04767 -1.65275,-1.18497 -0.07,-0.14745 -0.14038,-0.29479 -0.21104,-0.44205 0.34731,-0.13735 0.77903,-0.27549 1.2948,-0.41428 0.51612,-0.14652 0.94534,-0.25658 1.28721,-0.33047 0.55715,0.14811 0.98464,0.57685 1.27175,1.28871 0.28732,0.71239 0.37326,1.65226 0.24901,2.83205 -0.0902,0.83187 -0.34265,1.70023 -0.75449,2.60836 -0.41078,0.89967 -0.94944,1.75038 -1.60932,2.54711 -0.65052,0.78863 -1.39127,1.44113 -2.21983,1.95161 -0.82827,0.5026 -1.7007,0.76153 -2.62786,0.77722 0,0 3e-5,0 3e-5,0 z m 4.19774,-16.61364 c -0.0638,0.52926 -0.30988,1.06048 -0.73747,1.59522 -0.41852,0.53457 -1.07597,1.04285 -1.97174,1.52549 -0.003,-0.002 -0.50634,-0.37696 -0.50927,-0.37915 0.77513,-0.5972 1.20382,-1.23421 1.28322,-1.91281 0.0513,-0.40883 -0.0676,-0.76228 -0.35685,-1.06151 -0.27989,-0.30685 -0.77873,-0.46362 -1.49631,-0.46959 -0.0457,-0.16202 -0.0917,-0.32404 -0.13786,-0.48607 0.10247,-0.10049 0.34159,-0.21262 0.7169,-0.33615 0.37526,-0.12351 0.76317,-0.22747 1.16369,-0.31205 0.40966,-0.0922 0.70898,-0.12672 0.89826,-0.10377 0.49311,0.17617 0.82032,0.44765 0.98099,0.81471 0.16092,0.35949 0.21633,0.73444 0.16644,1.12568 z"
           style="font-family:'Gentium Plus';-inkscape-font-specification:'Gentium Plus';fill:#ff00ff"
           id="path12057"
           inkscape:original-d="m -124.62781,186.78114 q -0.79375,0 -1.6123,-0.45889 -0.81856,-0.47129 -1.37666,-1.55029 -0.54571,-1.09141 -0.54571,-2.95176 0,-1.31465 0.0744,-2.34404 0.0868,-1.0418 0.0868,-2.40605 0,-0.65733 -0.28525,-0.94258 -0.27285,-0.28526 -1.45107,-0.32246 v -0.4961 q 1.6123,-0.13642 3.23701,-0.81855 l 0.35967,0.48369 q 0.0992,0.42168 0.0496,1.35185 -0.0496,0.93018 -0.13643,2.17041 -0.0744,1.22784 -0.0744,2.59209 0,2.20762 0.74414,3.19981 0.75654,0.97978 1.71152,0.97978 0.84336,0 1.50068,-0.58291 0.65733,-0.58291 1.11621,-1.47587 0.47129,-0.90538 0.70694,-1.88516 0.24804,-0.99219 0.24804,-1.78594 0.0248,-1.51308 -0.50849,-2.54248 -0.5209,-1.0418 -1.62471,-1.27744 l -0.22324,-0.47129 q 0.47129,-0.21084 1.17822,-0.42168 0.70694,-0.22324 1.17822,-0.33486 0.79375,0.24804 1.27745,1.38906 0.48369,1.14102 0.47128,2.98896 -0.0124,1.30225 -0.45888,2.69131 -0.44649,1.37666 -1.26504,2.56729 -0.80615,1.17822 -1.92236,1.92236 -1.11621,0.73174 -2.45567,0.73174 z m 2.75332,-17.25166 q -0.062,0.85576 -0.62011,1.71152 -0.54571,0.85577 -1.74874,1.61231 l -0.48369,-0.40928 q 1.0294,-0.94258 1.10381,-2.03398 0.0496,-0.65733 -0.35967,-1.14102 -0.39687,-0.49609 -1.37666,-0.5085 l -0.13642,-0.52089 q 0.13642,-0.16123 0.64492,-0.35967 0.5085,-0.19844 1.0542,-0.33486 0.5581,-0.14883 0.81855,-0.11163 0.68213,0.28526 0.91778,0.88057 0.23564,0.58291 0.18603,1.21543 z" />
        <path
           d="m -102.64166,174.11454 c -0.49663,0.49553 -0.95975,0.90581 -1.38658,1.22778 -0.42623,0.31446 -0.86884,0.47524 -1.32803,0.48083 -0.45936,0.006 -1.04325,0.005 -1.75337,-0.002 -0.70914,-0.0145 -1.41973,-0.0251 -2.1318,-0.0317 -0.70256,-0.0145 -1.28563,-0.0187 -1.74811,-0.0127 0.002,-3e-5 -0.53915,0.007 -0.5369,0.007 -0.35806,0.005 -0.69949,0.0597 -1.02381,0.16538 -0.31549,0.10552 -0.70395,0.28635 -1.16482,0.54318 -0.0789,-0.13587 -0.15819,-0.27159 -0.2378,-0.40716 0.46172,-0.45931 0.96787,-0.88568 1.51894,-1.27978 0.55106,-0.39409 1.10703,-0.59303 1.66794,-0.59953 0.13802,-0.002 3.07565,-0.0351 3.21367,-0.0367 0.32241,-0.004 2.33131,-0.026 2.65372,-0.0297 0.43522,-0.005 0.81562,-0.0282 1.14151,-0.0701 0.32665,-0.0496 0.59342,-0.14823 0.80008,-0.29567 0.10543,0.11347 0.21056,0.22704 0.31536,0.34073 z m -2.75867,9.65134 c -1.06391,0.64726 -1.93014,1.1471 -2.61126,1.50055 -0.66999,0.34424 -1.26965,0.51801 -1.80399,0.52103 -0.45904,0.003 -0.80195,-0.16158 -1.03296,-0.48973 -0.22113,-0.33651 -0.35651,-0.75161 -0.40726,-1.24292 -0.0495,-0.49969 -0.0392,-0.99585 0.0322,-1.48952 0.15604,-1.07912 0.39693,-2.28667 0.71597,-3.62139 0.31844,-1.33224 0.61158,-2.72168 0.8694,-4.16079 0.0178,6.7e-4 1.3891,0.0521 1.40691,0.0528 -0.21144,1.24891 -0.39767,2.35655 -0.55961,3.3826 -0.16107,1.02056 -0.29972,1.91825 -0.41363,2.71926 -0.0497,0.34944 -0.0842,0.764 -0.10626,1.24847 -0.0208,0.47592 0.0273,0.90109 0.14465,1.274 0.11877,0.36478 0.36959,0.54697 0.75637,0.54371 0.31949,-0.003 0.68618,-0.0643 1.10119,-0.18501 0.41539,-0.12078 0.98257,-0.32609 1.70545,-0.61597 0.0683,0.18696 0.13595,0.37461 0.20285,0.56296 z"
           style="font-family:'Gentium Plus';-inkscape-font-specification:'Gentium Plus';fill:#ff00ff"
           id="path12059"
           inkscape:original-d="m -106.5948,174.86249 q -0.63252,0.79375 -1.19063,1.30224 -0.5581,0.4961 -1.21543,0.4961 -0.65732,0 -1.67431,-0.0248 -1.01699,-0.0372 -2.03399,-0.062 -1.00459,-0.0372 -1.66191,-0.0372 h -0.5085 q -0.50849,0 -0.95498,0.16123 -0.43408,0.16124 -1.0542,0.55811 l -0.26044,-0.43408 q 0.59531,-0.71934 1.32705,-1.33945 0.73173,-0.62012 1.52548,-0.62012 1.5503,0 3.03858,0 1.50068,0 2.51767,0 0.62012,0 1.07901,-0.062 0.45888,-0.0744 0.73174,-0.31006 z m -1.30225,9.95908 q -1.40146,0.94258 -2.31923,1.45107 -0.90538,0.4961 -1.69913,0.4961 -0.68212,0 -1.1038,-0.48369 -0.40928,-0.4961 -0.59532,-1.22784 -0.18603,-0.74414 -0.18603,-1.48828 0,-1.6247 0.22324,-3.6959 0.22324,-2.07119 0.39688,-4.37802 l 1.33945,0.0744 q -0.12403,1.98438 -0.17363,3.57188 -0.0496,1.5875 -0.0496,2.80293 0,0.5333 0.0744,1.26504 0.0744,0.71933 0.33486,1.27744 0.26045,0.5457 0.83096,0.5457 0.47129,0 1.0542,-0.17363 0.58291,-0.17364 1.5751,-0.59532 z" />
        <path
           d="m -91.751351,179.20165 c -0.159059,0.80737 -0.477479,1.59752 -0.947918,2.36758 -0.461839,0.76977 -1.032231,1.47376 -1.701962,2.10315 -0.661764,0.62973 -1.37032,1.13736 -2.121577,1.51545 -0.741791,0.36975 -1.478626,0.55603 -2.217084,0.55827 -0.995768,0.003 -1.812318,-0.26619 -2.469038,-0.7964 -0.64776,-0.52974 -1.10329,-1.24582 -1.37631,-2.13554 -0.2646,-0.88978 -0.3083,-1.88651 -0.1327,-2.98405 0.12783,-0.79899 0.39141,-1.56123 0.79624,-2.2908 0.40586,-0.7373 0.90664,-1.38965 1.50752,-1.96157 0.610423,-0.57967 1.280506,-1.0321 2.014024,-1.36147 0.742765,-0.33696 1.510079,-0.50874 2.300859,-0.51762 1.059131,-0.0119 1.958848,0.21303 2.68261,0.67702 0.724031,0.46417 1.240869,1.10526 1.534525,1.9328 0.302556,0.82814 0.348741,1.78697 0.130811,2.89318 z m -2.058489,0.38964 c 0.16566,-0.85906 0.130408,-1.63272 -0.103971,-2.32941 -0.232819,-0.70387 -0.59965,-1.26189 -1.090084,-1.68036 -0.490313,-0.41836 -1.039637,-0.62272 -1.636347,-0.61558 -0.796784,0.01 -1.471585,0.20941 -2.025033,0.60242 -0.54532,0.39329 -0.979237,0.92214 -1.30942,1.5932 -0.330365,0.67145 -0.562025,1.43327 -0.704005,2.29468 -0.13931,0.84518 -0.0958,1.63931 0.12941,2.38057 0.2352,0.733 0.577983,1.33475 1.035838,1.79731 0.468374,0.45442 0.984152,0.68336 1.561158,0.67983 1.06008,-0.006 1.947412,-0.45187 2.658061,-1.32269 0.707473,-0.86694 1.217451,-2.01567 1.484393,-3.39997 z"
           style="font-family:'Gentium Plus';-inkscape-font-specification:'Gentium Plus';fill:#ff00ff"
           id="path12061"
           inkscape:original-d="m -95.38308,180.38153 q 0,1.24024 -0.446484,2.38125 -0.434082,1.14102 -1.21543,2.04639 -0.768945,0.90537 -1.761133,1.43867 -0.979785,0.5209 -2.083593,0.5209 -1.48828,0 -2.6293,-0.76895 -1.12861,-0.76894 -1.77353,-2.09599 -0.63252,-1.32705 -0.63252,-3.01377 0,-1.22784 0.43408,-2.36885 0.43408,-1.15342 1.19063,-2.05879 0.76894,-0.91777 1.76113,-1.43867 1.00459,-0.5333 2.1332,-0.5333 1.513087,0 2.6417,0.76894 1.128614,0.76895 1.748731,2.096 0.632519,1.32705 0.632519,3.02617 z m -1.922363,0.37207 q 0,-1.31465 -0.508496,-2.41846 -0.508496,-1.11621 -1.302246,-1.79834 -0.79375,-0.68212 -1.649515,-0.68212 -1.14101,0 -1.86035,0.62011 -0.70693,0.62012 -1.0418,1.67432 -0.33486,1.0542 -0.33486,2.38125 0,1.30225 0.5333,2.41846 0.54571,1.1038 1.36426,1.78593 0.83096,0.66973 1.68672,0.66973 1.575096,0 2.344042,-1.26504 0.768945,-1.26504 0.768945,-3.38584 z" />
        <path
           d="m -77.3063,173.44458 c 0.03534,0.0515 0.08094,0.12185 0.136108,0.2105 0.0643,0.0888 0.08831,0.12547 0.07339,0.11095 -0.24479,0.37106 -0.506952,0.72659 -0.785028,1.06568 -0.269223,0.33896 -0.52567,0.60417 -0.766464,0.79282 -0.408864,0.0614 -0.79917,0.16465 -1.1711,0.3103 -0.370175,0.13783 -0.825781,0.39337 -1.366743,0.76943 -0.530589,0.37477 -1.245336,0.93871 -2.137548,1.69549 -0.87265,0.74087 -2.058327,1.78918 -3.500047,3.12034 -0.07844,0.32784 -0.162803,0.71042 -0.256421,1.15498 -0.0849,0.44341 -0.169398,0.87564 -0.252252,1.29353 -0.07468,0.41932 -0.128157,0.74793 -0.15826,0.98794 -0.233997,0.0907 -0.554376,0.20858 -0.96116,0.354 -0.400533,0.15417 -0.737164,0.29023 -1.010059,0.40802 -0.122352,-0.13748 -0.245268,-0.27438 -0.368742,-0.41071 0.131527,-0.28334 0.29039,-0.73637 0.467492,-1.34404 0.177197,-0.60798 0.347072,-1.25169 0.505988,-1.92605 0.198213,-0.8411 0.402606,-1.74462 0.603282,-2.69111 0.200466,-0.9455 0.360519,-1.76082 0.487678,-2.44077 0.106972,-0.57201 0.152854,-0.98394 0.144767,-1.2376 -0.0081,-0.25436 -0.141774,-0.41743 -0.398968,-0.49055 -0.247257,-0.0809 -0.688835,-0.14373 -1.324077,-0.1888 0.02439,-0.15359 0.04831,-0.30679 0.07175,-0.45962 0.65757,-0.0926 1.319174,-0.23477 1.985478,-0.42582 0.667456,-0.19864 1.227824,-0.37614 1.680732,-0.53299 0.103312,0.12668 0.206172,0.25356 0.30857,0.38066 0,0 -0.02636,0.17031 -0.08278,0.51295 -0.05575,0.33857 -0.131211,0.78359 -0.226987,1.31311 -0.09518,0.52625 -0.199762,1.07704 -0.31504,1.6541 -0.113333,0.56733 -0.223317,1.0915 -0.324123,1.55817 -0.09753,0.45149 -0.178785,0.81325 -0.215534,0.97626 1.641286,-1.58244 2.993388,-2.8091 4.010462,-3.67088 1.026032,-0.86937 1.853281,-1.50089 2.48014,-1.90368 0.628161,-0.40364 1.142393,-0.65939 1.542765,-0.77078 0.400546,-0.11144 0.775009,-0.16992 1.12274,-0.17583 0,0 -4e-6,0 -4e-6,0 z m -1.361765,10.63204 c -0.832124,0.46635 -1.559742,0.84443 -2.188846,1.13301 -0.628669,0.28837 -1.05089,0.43437 -1.271845,0.43733 -0.280383,0.004 -0.478909,-0.20668 -0.604558,-0.62498 -0.117133,-0.41836 -0.204276,-0.93334 -0.26837,-1.54034 -0.06403,-0.6064 -0.137721,-1.19857 -0.220496,-1.77774 -0.07195,-0.58719 -0.185662,-1.07016 -0.334073,-1.45334 -0.148407,-0.38317 -0.360335,-0.57044 -0.627513,-0.56595 -0.224402,0.004 -0.521077,0.11441 -0.888929,0.33287 -0.357483,0.21019 -0.730138,0.48689 -1.118729,0.83202 -0.386731,0.33692 -0.740365,0.69623 -1.062023,1.07903 -0.321651,0.3828 -0.55766,0.74227 -0.708356,1.07747 0,0 -0.05296,-0.008 -0.158883,-0.0237 -0.09752,-0.0159 -0.182086,-0.10039 -0.254906,-0.25269 0.643478,-1.11361 1.252464,-1.96388 1.845642,-2.5788 0.601351,-0.61463 1.150852,-1.05883 1.65198,-1.34013 0.502818,-0.28933 0.927621,-0.47202 1.27319,-0.54968 0.345736,-0.0777 0.575606,-0.11753 0.68865,-0.11952 0.330046,-0.006 0.599609,0.17599 0.799871,0.5491 0.208995,0.37303 0.376994,0.8391 0.497009,1.40245 0.128792,0.5637 0.240742,1.13542 0.33576,1.71635 0.105995,0.57285 0.22287,1.06363 0.357392,1.46924 0.143112,0.40545 0.343332,0.60871 0.609781,0.60404 0.300228,-0.005 0.562409,-0.0407 0.786683,-0.10621 0.232985,-0.0657 0.534882,-0.16322 0.907287,-0.29278 -0.01087,0.0962 -0.0189,0.19692 -0.02417,0.3023 -0.0053,0.10536 -0.01249,0.20235 -0.02157,0.29073 0,0 1.4e-5,-4e-5 1.4e-5,-4e-5 z"
           style="font-family:'Gentium Plus';-inkscape-font-specification:'Gentium Plus';fill:#ff00ff"
           id="path12063"
           inkscape:original-d="m -82.695482,174.49042 q 0.06201,0.0868 0.16123,0.23564 0.111622,0.14883 0.08682,0.12403 -0.248047,0.60771 -0.545703,1.15341 -0.285254,0.54571 -0.570508,0.84336 -0.558106,0.0868 -1.041797,0.31006 -0.483691,0.21084 -1.141016,0.79375 -0.644921,0.58291 -1.686718,1.73633 -1.029395,1.14102 -2.678906,3.10059 0,0.48369 0.0248,1.12861 0.03721,0.64492 0.07441,1.24023 0.04961,0.59532 0.09922,0.93018 -0.310059,0.12402 -0.855762,0.32246 -0.5333,0.21084 -0.892968,0.37207 l -0.471289,-0.38447 q 0.08682,-0.39688 0.124023,-1.26504 0.03721,-0.86817 0.03721,-1.86035 0,-1.24024 0,-2.69131 0,-1.45108 0,-2.53008 0,-0.90537 -0.07441,-1.31465 -0.07441,-0.40928 -0.458887,-0.5333 -0.37207,-0.13642 -1.289844,-0.22324 v -0.49609 q 0.917774,-0.13643 1.823145,-0.43409 0.905371,-0.31006 1.513086,-0.5581 l 0.347266,0.42168 q 0,0 0,0.5581 0,0.55811 0,1.41387 0,0.84336 0,1.74873 0,0.89297 0,1.61231 0,0.71933 0,0.99218 1.872753,-2.38125 3.088183,-3.74551 1.21543,-1.36425 1.996777,-2.00917 0.781348,-0.64493 1.314649,-0.81856 0.533301,-0.17363 1.016992,-0.17363 z m 1.153418,10.88926 q -1.00459,0.63251 -1.79834,1.01699 -0.79375,0.38447 -1.116211,0.38447 -0.409277,0 -0.768945,-0.58291 -0.347266,-0.58291 -0.682129,-1.45107 -0.334863,-0.86817 -0.669727,-1.72393 -0.322461,-0.86816 -0.669726,-1.45107 -0.347266,-0.58291 -0.731738,-0.58291 -0.322461,0 -0.781348,0.32246 -0.446484,0.31006 -0.892969,0.81855 -0.446484,0.4961 -0.781347,1.0542 -0.334864,0.55811 -0.434082,1.0418 0,0 -0.161231,-0.0248 -0.148828,-0.0248 -0.310059,-0.24804 0.545704,-1.61231 1.203028,-2.53008 0.669726,-0.91778 1.302246,-1.33946 0.632519,-0.43408 1.103808,-0.5457 0.47129,-0.11162 0.63252,-0.11162 0.471289,0 0.880566,0.58291 0.42168,0.58291 0.79375,1.43867 0.384473,0.85576 0.744141,1.71153 0.37207,0.84336 0.731738,1.42627 0.372071,0.58291 0.756543,0.58291 0.434082,0 0.731738,-0.0868 0.310059,-0.0868 0.79375,-0.26045 0.02481,0.13643 0.06201,0.28525 0.03721,0.14883 0.06201,0.27286 z" />
        <path
           d="m -64.971117,178.1564 c -0.248607,0.85493 -0.664698,1.70917 -1.239406,2.56181 -0.562647,0.84338 -1.206586,1.62449 -1.91716,2.3287 -0.710966,0.70458 -1.424053,1.2827 -2.130054,1.71953 -0.69521,0.42812 -1.302832,0.65161 -1.82803,0.66604 -0.253746,0.007 -0.54004,-0.0539 -0.86112,-0.18189 -0.321712,-0.12825 -0.680129,-0.38614 -1.085637,-0.76985 -0.40405,-0.39411 -0.851964,-0.9734 -1.37332,-1.73139 0.139394,-0.0897 0.193653,-0.19867 0.162078,-0.32659 -0.02284,-0.12812 -0.02243,-0.24776 0.0014,-0.35912 0.03263,-0.11157 0.198116,-0.1877 0.497565,-0.22913 0.547903,0.48929 0.983367,0.8666 1.329422,1.13733 0.352568,0.26872 0.666224,0.4572 0.946287,0.56383 0.291355,0.0974 0.603559,0.1415 0.938442,0.13179 0.916145,-0.0266 1.753093,-0.44965 2.493356,-1.23997 0.741143,-0.79696 1.343337,-1.9058 1.740935,-3.25772 0.306846,-1.04335 0.384648,-1.90431 0.250596,-2.60936 -0.133825,-0.70387 -0.436548,-1.22829 -0.888937,-1.58458 -0.443204,-0.35649 -0.984875,-0.52606 -1.611197,-0.51122 -0.44543,0.0106 -0.905036,0.17433 -1.380064,0.49466 -0.466801,0.32068 -0.906145,0.84939 -1.336012,1.60291 -0.430075,0.75389 -0.808915,1.78428 -1.181938,3.14141 -0.09225,0.33562 -0.204238,0.73666 -0.336359,1.19741 -0.132585,0.46236 -0.268746,0.92664 -0.408137,1.39259 -0.135959,0.45449 -0.26082,0.86318 -0.366224,1.20461 -0.0997,0.32295 -0.180554,0.58086 -0.198979,0.63965 0.178299,-0.56894 -1.063456,3.39252 -0.885157,2.82357 -0.308204,0.98262 -0.57223,1.88494 -0.785476,2.70066 -0.208148,0.82542 -0.299748,1.43239 -0.262063,1.80198 -0.441766,0.15872 -0.84671,0.31161 -1.215458,0.45894 -0.360322,0.14725 -0.748115,0.31531 -1.162649,0.50416 -0.06511,-0.0518 -0.109502,-0.10353 -0.133145,-0.15529 -0.02369,-0.0518 -0.05261,-0.12404 -0.08719,-0.21688 0.133767,-0.3881 0.370028,-1.07554 0.644913,-1.88915 0.277586,-0.8216 0.59034,-1.75917 0.914857,-2.75701 0.323437,-0.99453 0.636714,-1.9817 0.936798,-2.9581 0.300296,-0.97709 0.561754,-1.86003 0.791661,-2.66221 0.227624,-0.79421 0.403461,-1.43665 0.527779,-1.89934 0.398604,-1.48353 0.938318,-2.68736 1.668484,-3.66143 0.737835,-0.97258 1.553836,-1.69233 2.4739,-2.18208 0.929415,-0.49679 1.859001,-0.75112 2.791334,-0.77177 1.049764,-0.0233 1.890262,0.18776 2.495318,0.63645 0.614961,0.44898 1.01912,1.0424 1.192872,1.79366 0.173999,0.75232 0.13367,1.56518 -0.124325,2.45239 0,0 -3e-6,0 -3e-6,0 z"
           style="font-family:'Gentium Plus';-inkscape-font-specification:'Gentium Plus';fill:#ff00ff"
           id="path12065"
           inkscape:original-d="m -70.317944,179.91024 q 0,1.32705 -0.421679,2.56729 -0.409278,1.22783 -1.079004,2.19521 -0.669727,0.96738 -1.463477,1.53789 -0.781347,0.55811 -1.525488,0.55811 -0.359668,0 -0.880567,-0.18604 -0.520898,-0.18603 -1.277441,-0.73174 -0.756543,-0.5581 -1.823144,-1.66191 0.16123,-0.12402 0.06201,-0.31006 -0.08682,-0.18603 -0.09922,-0.34726 0,-0.16123 0.409277,-0.21084 0.979785,0.73173 1.5875,1.12861 0.620117,0.39687 1.066601,0.55811 0.458887,0.14882 0.930176,0.14882 1.289844,0 1.971973,-1.10381 0.682129,-1.11621 0.682129,-3.175 0,-1.5875 -0.434082,-2.72851 -0.434082,-1.14102 -1.165821,-1.74873 -0.719336,-0.60772 -1.575097,-0.60772 -0.607715,0 -1.165821,0.5085 -0.545703,0.5085 -0.892968,1.69912 -0.347266,1.19063 -0.347266,3.23701 0,0.5085 0,1.19063 0,0.68213 0,1.35185 0,0.65733 0,1.14102 0,0.48369 0,0.59531 0,1.25264 0.02481,2.54248 0.0248,1.28985 0.124023,2.30684 0.111621,1.02939 0.359668,1.47588 -0.570508,0.18603 -1.041797,0.35966 -0.458886,0.17364 -0.979785,0.39688 -0.124023,-0.062 -0.186035,-0.12402 -0.06201,-0.062 -0.16123,-0.17364 0,-0.49609 0,-1.53789 0,-1.02939 0,-2.34404 0,-1.30225 0,-2.6541 0,-1.35186 0,-2.51768 0,-1.16582 0,-1.87275 0,-2.23242 0.706933,-3.77031 0.719336,-1.53789 1.847949,-2.31924 1.141016,-0.79375 2.406055,-0.79375 1.42627,0 2.38125,0.78135 0.967383,0.78134 1.463477,2.02158 0.496093,1.24023 0.496093,2.61689 z" />
        <path
           d="m -60.939115,185.01461 c -0.732684,0.0354 -1.318676,-0.16711 -1.778216,-0.59766 -0.449985,-0.43052 -0.705391,-1.07936 -0.78976,-1.92252 -0.08128,-0.85145 0.07811,-1.88724 0.453248,-3.07605 0.374977,-1.18831 0.924653,-2.25626 1.672806,-3.22452 0.759599,-0.97625 1.619588,-1.74693 2.609657,-2.33769 0.999527,-0.59106 2.038598,-0.89451 3.132144,-0.92969 0.879555,-0.0283 1.6121,0.24027 2.157302,0.81175 0.545239,0.57152 0.834582,1.45279 0.799603,2.68925 0.378538,-0.61874 0.699474,-1.19879 0.965119,-1.7458 0.277412,-0.55455 0.448365,-1.03342 0.518448,-1.44422 0.4465,-0.0802 0.965444,-0.17026 1.556413,-0.26971 0.601074,-0.0999 1.147502,-0.20442 1.637522,-0.31319 0.06085,0.0665 0.0967,0.13408 0.107535,0.20277 0.02265,0.0613 0.04701,0.1157 0.07321,0.16315 -0.551831,0.2236 -1.072542,0.51724 -1.566893,0.8853 -0.48262,0.3606 -0.984872,0.87151 -1.521786,1.5485 -0.536637,0.67665 -1.165083,1.60532 -1.920853,2.8303 -0.170431,1.01992 -0.304562,1.78109 -0.393686,2.40661 -0.08579,0.60208 -0.13685,1.05369 -0.141765,1.35463 0.0081,0.28965 0.04968,0.47672 0.128993,0.55837 0.08269,0.0727 0.180905,0.10558 0.295292,0.0985 0.152521,-0.009 0.387038,-0.0501 0.704783,-0.12207 0.330938,-0.0814 0.693813,-0.19509 1.089711,-0.34065 -0.01259,0.0778 -0.02233,0.15987 -0.02929,0.24635 -0.0069,0.0863 -0.02006,0.19956 -0.03979,0.3395 -0.874729,0.56172 -1.65002,1.01128 -2.330067,1.34175 -0.670414,0.32981 -1.195245,0.50777 -1.58104,0.53116 -0.385791,0.0234 -0.557743,-0.25865 -0.533481,-0.83123 0.03421,-0.58227 0.236229,-1.56991 0.548626,-2.94631 -1.188307,1.3044 -2.317062,2.3344 -3.342382,3.02086 -1.016159,0.67927 -1.839639,1.04163 -2.4814,1.07261 0,0 0,-1e-5 0,-1e-5 z m 1.267159,-2.04277 c 0.480978,-0.0236 1.016148,-0.24297 1.607242,-0.65201 0.593232,-0.41704 1.186566,-0.9282 1.772234,-1.52291 0.588615,-0.60304 1.124456,-1.20395 1.603966,-1.80136 0.379147,-1.80909 0.307454,-3.04128 -0.09674,-3.8031 -0.392301,-0.76925 -1.039898,-1.13115 -1.884487,-1.10171 -0.476569,0.0166 -0.979315,0.17497 -1.509044,0.47923 -0.530429,0.30465 -1.020568,0.76429 -1.484502,1.39198 -0.462016,0.62037 -0.832992,1.40987 -1.14004,2.3951 -0.234636,0.75289 -0.368522,1.48766 -0.399895,2.20091 -0.02215,0.71327 0.07707,1.3079 0.310337,1.77034 0.245964,0.45395 0.647065,0.67165 1.220933,0.64353 z m 4.806711,-11.37375 c -0.148307,-0.0236 -0.265359,-0.0585 -0.351414,-0.10472 -0.08613,-0.0462 -0.19993,-0.11935 -0.34227,-0.21953 1.110063,-1.326 2.170422,-2.60818 3.166711,-3.85241 0.321609,-0.083 0.74255,-0.17352 1.263397,-0.27108 0.520674,-0.0975 0.973234,-0.1775 1.354658,-0.24003 0.141876,0.11182 0.283262,0.22352 0.424133,0.3351 -1.789312,1.39926 -3.608775,2.82588 -5.515215,4.35267 z"
           style="font-family:'Gentium Plus';-inkscape-font-specification:'Gentium Plus';fill:#ff00ff"
           id="path12067"
           inkscape:original-d="m -64.488841,186.76874 q -0.992188,0 -1.84795,-0.62012 -0.843359,-0.62012 -1.364257,-1.83555 -0.520899,-1.22783 -0.520899,-3.02617 0,-1.79834 0.644922,-3.33623 0.657324,-1.55029 1.773535,-2.50527 1.128614,-0.95498 2.542481,-0.95498 1.141015,0 2.046386,1.02939 0.905371,1.0294 1.376661,3.07578 0.235644,-0.99218 0.37207,-1.90996 0.148828,-0.93017 0.09922,-1.64951 0.545703,-0.11162 1.265039,-0.24805 0.731738,-0.13642 1.314648,-0.29765 0.09922,0.12402 0.136426,0.24804 0.04961,0.11163 0.09922,0.19844 -0.620118,0.35967 -1.116211,0.96738 -0.483692,0.59532 -0.905371,1.69913 -0.42168,1.1038 -0.855762,2.98896 0.235644,1.5627 0.42168,2.45566 0.186035,0.89297 0.334863,1.32706 0.16123,0.42168 0.310058,0.5457 0.148829,0.11162 0.297657,0.11162 0.198437,0 0.58291,-0.0744 0.396875,-0.0868 0.843359,-0.26045 0.02481,0.11162 0.06201,0.23564 0.03721,0.12402 0.08682,0.32246 -0.855761,0.71934 -1.5875,1.11621 -0.719336,0.39688 -1.227832,0.39688 -0.508496,0 -0.781347,-0.79375 -0.26045,-0.79375 -0.520899,-2.80293 -0.942578,1.84795 -1.984375,2.72851 -1.029394,0.86817 -1.897558,0.86817 z m 0.458886,-1.83555 q 0.644922,0 1.240235,-0.5457 0.595312,-0.55811 1.091406,-1.40147 0.496094,-0.85576 0.855762,-1.74873 -0.334864,-2.80293 -1.153418,-4.11758 -0.806153,-1.32705 -1.909961,-1.32705 -0.620117,0 -1.21543,0.4837 -0.595312,0.48369 -0.979785,1.48828 -0.384473,0.99218 -0.384473,2.51767 0,1.16582 0.285254,2.23242 0.297657,1.06661 0.84336,1.74873 0.558105,0.66973 1.32705,0.66973 z m 1.178223,-11.98066 q -0.198437,-0.0496 -0.322461,-0.13643 -0.124023,-0.0868 -0.334863,-0.27285 l 2.182812,-4.65088 q 0.396875,-0.14883 1.041797,-0.32246 0.644922,-0.17363 1.116211,-0.28525 l 0.384473,0.43408 z" />
        <path
           d="m -33.893349,172.29031 c -0.678578,0.44935 -1.30548,0.83168 -1.874688,1.13862 -0.567528,0.30051 -1.128094,0.47063 -1.679664,0.50356 -0.550127,0.0328 -1.250178,0.0673 -2.088621,0.10138 -0.837347,0.0271 -1.670479,0.0559 -2.500218,0.0865 -0.818503,0.0231 -1.489271,0.0473 -2.024776,0.0746 -6.93e-4,4e-5 -0.618104,0.0313 -0.618797,0.0314 -0.41186,0.0207 -0.812264,0.0862 -1.201189,0.19736 -0.378549,0.11059 -0.854217,0.29393 -1.424086,0.55208 -0.0633,-0.12265 -0.127273,-0.24488 -0.191916,-0.3667 0.606404,-0.44308 1.254977,-0.85225 1.94899,-1.22972 0.693213,-0.37705 1.362121,-0.57582 2.009484,-0.605 1.265165,-0.057 2.515402,-0.11585 3.751865,-0.17646 1.240007,-0.0608 2.309593,-0.11569 3.160806,-0.16031 0.522954,-0.0274 0.985417,-0.0685 1.385625,-0.1223 0.402351,-0.0605 0.740835,-0.15953 1.013186,-0.29572 0.1118,0.0901 0.223136,0.18032 0.333999,0.27065 z m -5.32192,9.14978 c -1.467884,0.76786 -2.622266,1.36433 -3.544805,1.8078 -0.897133,0.4281 -1.657309,0.6718 -2.290866,0.72479 -0.543841,0.0455 -0.898954,-0.10001 -1.077217,-0.42986 -0.164111,-0.3392 -0.205684,-0.76771 -0.130991,-1.27658 0.07844,-0.51753 0.222228,-1.02993 0.432397,-1.53707 0.460631,-1.11151 1.031575,-2.31903 1.693459,-3.61354 0.658309,-1.28751 1.27113,-2.58687 1.806783,-3.87775 0.54285,-0.006 1.087777,-0.013 1.634775,-0.0206 -0.429619,1.05861 -0.90625,2.19536 -1.284219,3.10736 -0.413888,0.99866 -0.751756,1.80388 -1.089411,2.6317 -0.141251,0.34631 -0.282055,0.75849 -0.428974,1.24571 -0.143331,0.47863 -0.196389,0.90693 -0.15523,1.27875 0.045,0.36393 0.292486,0.53039 0.753718,0.49201 0.381016,-0.0317 0.834356,-0.12905 1.363438,-0.29144 0.53146,-0.16313 1.261911,-0.42495 2.212458,-0.78698 0.0362,0.18048 0.07109,0.36236 0.104685,0.5457 z"
           style="font-family:'Gentium Plus';-inkscape-font-specification:'Gentium Plus';fill:#ff00ff"
           id="path12069"
           inkscape:original-d="m -45.32722,174.86249 q -0.63252,0.79375 -1.190625,1.30224 -0.558106,0.4961 -1.21543,0.4961 -0.657324,0 -1.674316,-0.0248 -1.016993,-0.0372 -2.033985,-0.062 -1.00459,-0.0372 -1.661914,-0.0372 h -0.508496 q -0.508496,0 -0.95498,0.16123 -0.434082,0.16124 -1.054199,0.55811 l -0.26045,-0.43408 q 0.595313,-0.71934 1.327051,-1.33945 0.731738,-0.62012 1.525488,-0.62012 1.550293,0 3.038575,0 1.500683,0 2.517675,0 0.620117,0 1.079004,-0.062 0.458887,-0.0744 0.731738,-0.31006 z m -1.302246,9.95908 q -1.401465,0.94258 -2.319239,1.45107 -0.905371,0.4961 -1.699121,0.4961 -0.682129,0 -1.103808,-0.48369 -0.409278,-0.4961 -0.595313,-1.22784 -0.186035,-0.74414 -0.186035,-1.48828 0,-1.6247 0.223242,-3.6959 0.223242,-2.07119 0.396875,-4.37802 l 1.339453,0.0744 q -0.124023,1.98438 -0.173632,3.57188 -0.04961,1.5875 -0.04961,2.80293 0,0.5333 0.07441,1.26504 0.07441,0.71933 0.334864,1.27744 0.260449,0.5457 0.830957,0.5457 0.471289,0 1.054199,-0.17363 0.58291,-0.17364 1.575097,-0.59532 z" />
        <path
           d="m -13.41565,174.95111 c -0.578,1.04028 -1.478585,2.05923 -2.632679,3.00807 -1.156207,0.95059 -2.380914,1.77536 -3.63297,2.41703 -1.245933,0.64278 -2.32328,1.03828 -3.25041,1.1646 -1.248768,0.17013 -2.022538,-0.0254 -2.373211,-0.56068 -0.333394,-0.54271 -0.431403,-1.17515 -0.305757,-1.87669 -0.476037,0.49999 -1.037202,1.00373 -1.6781,1.50845 -0.630123,0.50352 -1.347344,0.95335 -2.141896,1.33831 -0.791065,0.37664 -1.653671,0.6237 -2.586257,0.73063 -0.965902,0.11076 -1.715609,-0.0333 -2.280558,-0.42096 -0.548969,-0.39685 -0.842645,-1.01383 -0.913424,-1.81708 -0.05631,-0.81178 0.171052,-1.78728 0.651172,-2.88295 0.362398,-0.82703 0.887178,-1.62706 1.581512,-2.40035 0.704796,-0.77392 1.510286,-1.46271 2.432072,-2.07736 0.923942,-0.62104 1.903926,-1.11373 2.957434,-1.49452 0.07867,0.0196 0.240162,0.0498 0.483368,0.0897 0.245724,0.0338 0.399351,0.0698 0.460607,0.10872 -1.500063,0.82642 -2.635524,1.67281 -3.421553,2.52771 -0.783628,0.84846 -1.373387,1.72584 -1.777117,2.63106 -0.317042,0.71086 -0.493506,1.39363 -0.524267,2.03825 -0.02017,0.64413 0.127396,1.17035 0.460047,1.55892 0.348268,0.37997 0.901504,0.5312 1.684835,0.44353 0.514683,-0.0576 1.071693,-0.27887 1.672206,-0.65529 0.614251,-0.38519 1.186875,-0.84251 1.707491,-1.36002 0.524779,-0.5256 0.91673,-1.03395 1.17168,-1.52636 0.266758,-0.55819 0.481146,-1.095 0.642817,-1.61349 0.161013,-0.51638 0.236155,-0.86839 0.240955,-1.0647 0.526631,-0.15182 1.011167,-0.29192 1.456475,-0.42165 0.444741,-0.12956 0.861041,-0.25252 1.248621,-0.36907 0.05967,0.058 0.12882,0.11853 0.207388,0.18143 0.0898,0.0619 0.134525,0.0929 0.134525,0.0929 0,0 -0.203964,0.26517 -0.628057,0.81568 -0.411698,0.5453 -0.810746,1.23203 -1.227893,2.09515 -0.227839,0.49023 -0.377863,0.97424 -0.449374,1.44911 -0.07152,0.47492 0.02461,0.85982 0.298221,1.14101 0.278757,0.27368 0.817403,0.36127 1.635089,0.25518 0.728194,-0.0945 1.466926,-0.38609 2.214954,-0.85847 0.757011,-0.47239 1.456694,-1.03923 2.078482,-1.67773 0.626069,-0.64612 1.11295,-1.28249 1.450289,-1.90699 0.536194,-0.99264 0.710973,-1.79593 0.551335,-2.46474 -0.145115,-0.67678 -0.58308,-1.32245 -1.316367,-1.96102 0.120572,-0.0483 0.317355,-0.10479 0.59084,-0.16939 0.27308,-0.0696 0.479573,-0.1216 0.602205,-0.15212 0.750234,0.19898 1.396878,0.49131 1.91202,0.88337 0.518918,0.38705 0.850513,0.84834 0.976637,1.4028 0.141287,0.54794 0.02171,1.15689 -0.363387,1.84998 z"
           style="font-family:'Gentium Plus';-inkscape-font-specification:'Gentium Plus';fill:#ff00ff"
           id="path12071"
           inkscape:original-d="m -28.646073,180.57997 q 0,1.92236 -0.706933,3.31142 -0.706934,1.38907 -1.761133,2.13321 -1.041797,0.74414 -2.071191,0.74414 -1.389063,0 -2.158008,-0.89297 -0.756543,-0.90537 -1.041797,-2.03399 -0.260449,0.73174 -0.719336,1.40147 -0.446484,0.66973 -1.178223,1.10381 -0.731738,0.42168 -1.823144,0.42168 -1.128613,0 -2.071191,-0.65733 -0.930176,-0.66972 -1.488282,-1.92236 -0.545703,-1.26504 -0.545703,-3.03857 0,-1.33946 0.458887,-2.6417 0.471289,-1.30225 1.289844,-2.36885 0.818554,-1.079 1.885156,-1.72393 0.09922,0.0496 0.396875,0.16123 0.297656,0.0992 0.384472,0.18604 -1.389062,1.48828 -1.90996,2.97656 -0.520899,1.47588 -0.520899,2.97656 0,1.17823 0.334863,2.22002 0.347266,1.0418 0.992188,1.69912 0.657324,0.64493 1.562695,0.64493 0.595313,0 1.091406,-0.48369 0.508497,-0.4961 0.818555,-1.25264 0.310059,-0.76895 0.322461,-1.5751 -0.0124,-0.91777 -0.111621,-1.83555 -0.09922,-0.91777 -0.198438,-1.28984 0.533301,-0.19844 0.979786,-0.37207 0.446484,-0.17363 0.830957,-0.33486 0.09922,0.12402 0.223242,0.26045 0.136426,0.13642 0.136426,0.13642 0,0 -0.186036,0.96738 -0.173632,0.95498 -0.148828,2.39366 0.02481,0.81855 0.235645,1.5999 0.21084,0.78135 0.719336,1.28984 0.508496,0.4961 1.413867,0.4961 0.806152,0 1.37666,-0.62012 0.58291,-0.62012 0.892969,-1.61231 0.310058,-1.00459 0.310058,-2.1208 0,-1.77353 -0.545703,-3.1998 -0.5333,-1.43867 -1.637109,-2.96416 0.111621,-0.0868 0.384473,-0.18604 0.272851,-0.11162 0.396875,-0.16123 0.917773,0.57051 1.686718,1.53789 0.768946,0.95498 1.227832,2.15801 0.471289,1.19063 0.471289,2.46807 z" />
        <path
           d="m 4.9918794,172.10475 c -0.4226399,0.59673 -1.0859305,1.2452 -1.9759516,1.95177 -0.8713018,0.69705 -1.8582351,1.39687 -2.92990299,2.07341 -1.07447242,0.67831 -2.13759531,1.2822 -3.17719741,1.78406 -1.0246823,0.49317 -1.8971588,0.81143 -2.6330363,0.9406 -0.3546243,0.0623 -0.7459787,0.0764 -1.1761276,0.0417 -0.4310906,-0.0348 -0.895535,-0.16919 -1.4065442,-0.40003 -0.5077804,-0.23972 -1.0489852,-0.62463 -1.6634736,-1.14375 0.2019746,-0.0983 0.2900213,-0.19613 0.2632478,-0.2934 -0.014821,-0.099 9.845e-4,-0.19523 0.047692,-0.28864 0.058674,-0.0951 0.2938397,-0.18497 0.7081741,-0.27099 0.6860779,0.29025 1.2414833,0.50892 1.6834477,0.65652 0.4528993,0.14532 0.8637376,0.23217 1.2388833,0.25983 0.3920587,0.018 0.8198085,-0.0116 1.2868627,-0.089 1.2789938,-0.2119 2.4918809,-0.72072 3.6171387,-1.46544 1.12116392,-0.74585 2.08124135,-1.67047 2.7642439,-2.66674 0.5278036,-0.7699 0.7123684,-1.34455 0.5859385,-1.78213 -0.1257718,-0.43532 -0.5049209,-0.72562 -1.1020839,-0.8931 -0.58329491,-0.16849 -1.32067099,-0.21021 -2.1814195,-0.12421 -0.6126394,0.0612 -1.2576105,0.22293 -1.9349044,0.49582 -0.6660599,0.2721 -1.3149079,0.68619 -1.9749961,1.27337 -0.6613415,0.5883 -1.2847537,1.38086 -1.9500852,2.46498 -0.1659492,0.27041 -0.3629067,0.58941 -0.6000717,0.97042 -0.2364021,0.37978 -0.4797845,0.7682 -0.7284398,1.16342 -0.2388258,0.37959 -0.4695356,0.74481 -0.6538761,1.03628 -0.084043,0.13288 -0.2713099,0.42851 -0.3553531,0.5614 -0.5047434,0.79686 -1.0354967,1.64987 -1.5918057,2.56237 -0.557553,0.91455 -1.046718,1.77375 -1.45447,2.55636 -0.401558,0.78918 -0.613582,1.36981 -0.611703,1.69771 -0.637321,0.25977 -1.221879,0.5056 -1.754765,0.73767 -0.521012,0.22976 -1.08327,0.48703 -1.684447,0.77189 -0.08249,-0.0323 -0.136223,-0.0699 -0.161252,-0.11285 -0.02508,-0.043 -0.05437,-0.10394 -0.08833,-0.18294 0.258583,-0.42726 0.65393,-1.07914 1.168007,-1.92093 0.521809,-0.85444 1.049839,-1.71456 1.656397,-2.69936 0.664134,-1.07828 1.031196,-1.67203 1.69533,-2.75031 0.550289,-0.89388 1.00914,-1.64259 1.431812,-2.33894 0.417122,-0.68721 0.7237324,-1.19958 0.9539423,-1.58734 0.7192139,-1.21143 1.5828755,-2.17667 2.6693548,-2.9643 1.0969347,-0.78771 2.2699184,-1.37213 3.5649795,-1.80048 1.3076938,-0.43383 2.60297128,-0.69399 3.88761571,-0.81127 1.44393269,-0.13181 2.60338709,-0.0997 3.40939619,0.0943 0.8233143,0.19375 1.347018,0.4934 1.5322389,0.92705 0.1859693,0.43539 0.06437,0.94566 -0.3744754,1.56526 0,0 1.24e-5,0 1.24e-5,0 z"
           style="font-family:'Gentium Plus';-inkscape-font-specification:'Gentium Plus';fill:#ff00ff"
           id="path12073"
           inkscape:original-d="m -16.491776,179.91024 q 0,1.32705 -0.421679,2.56729 -0.409278,1.22783 -1.079004,2.19521 -0.669727,0.96738 -1.463477,1.53789 -0.781347,0.55811 -1.525488,0.55811 -0.359668,0 -0.880566,-0.18604 -0.520899,-0.18603 -1.277442,-0.73174 -0.756543,-0.5581 -1.823144,-1.66191 0.16123,-0.12402 0.06201,-0.31006 -0.08682,-0.18603 -0.09922,-0.34726 0,-0.16123 0.409277,-0.21084 0.979785,0.73173 1.5875,1.12861 0.620117,0.39687 1.066601,0.55811 0.458887,0.14882 0.930176,0.14882 1.289844,0 1.971973,-1.10381 0.682129,-1.11621 0.682129,-3.175 0,-1.5875 -0.434082,-2.72851 -0.434082,-1.14102 -1.165821,-1.74873 -0.719335,-0.60772 -1.575097,-0.60772 -0.607715,0 -1.16582,0.5085 -0.545704,0.5085 -0.892969,1.69912 -0.347266,1.19063 -0.347266,3.23701 0,0.5085 0,1.19063 0,0.68213 0,1.35185 0,0.65733 0,1.14102 0,0.48369 0,0.59531 0,1.25264 0.0248,2.54248 0.02481,1.28985 0.124023,2.30684 0.111621,1.02939 0.359668,1.47588 -0.570508,0.18603 -1.041797,0.35966 -0.458886,0.17364 -0.979785,0.39688 -0.124023,-0.062 -0.186035,-0.12402 -0.06201,-0.062 -0.16123,-0.17364 0,-0.49609 0,-1.53789 0,-1.02939 0,-2.34404 0,-1.30225 0,-2.6541 0,-1.35186 0,-2.51768 0,-1.16582 0,-1.87275 0,-2.23242 0.706933,-3.77031 0.719336,-1.53789 1.847949,-2.31924 1.141016,-0.79375 2.406055,-0.79375 1.42627,0 2.38125,0.78135 0.967383,0.78134 1.463477,2.02158 0.496093,1.24023 0.496093,2.61689 z" />
      </g>
    </g>
    <g
       id="g12192"
       transform="translate(0,0.04558712)">
      <text
         xml:space="preserve"
         style="font-style:normal;font-variant:normal;font-weight:normal;font-stretch:normal;font-size:25.4px;font-family:'Gentium Plus';-inkscape-font-specification:'Gentium Plus';fill:#ff00ff;fill-opacity:1;stroke-width:0.264583"
         x="136.41792"
         y="91.875107"
         id="text12080"><tspan
           sodipodi:role="line"
           id="tspan12078"
           style="font-style:normal;font-variant:normal;font-weight:normal;font-stretch:normal;font-family:'DejaVu Sans Mono';-inkscape-font-specification:'DejaVu Sans Mono';fill:#333333;stroke-width:0.264583"
           x="136.41792"
           y="91.875107">ostarrichi</tspan></text>
      <text
         xml:space="preserve"
         style="font-style:normal;font-variant:normal;font-weight:normal;font-stretch:normal;font-size:25.4px;font-family:'DejaVu Sans Mono';-inkscape-font-specification:'DejaVu Sans Mono';fill:#333333;fill-opacity:1;stroke-width:0.264583"
         x="136.93965"
         y="113.84057"
         id="text12186"><tspan
           sodipodi:role="line"
           id="tspan12184"
           style="stroke-width:0.264583"
           x="136.93965"
           y="113.84057">autokrator</tspan></text>
    </g>
  </g>
</svg>
